<svg width="32" height="32" viewBox="0 0 32 32" fill="none" xmlns="http://www.w3.org/2000/svg">
<path d="M26.0823 20.9829C24.6208 20.4302 23.6432 19.103 23.5329 17.5203C23.4248 15.9779 24.1806 14.6082 25.5548 13.8556L26.6973 13.2297L25.8814 12.2138C24.5105 10.5065 22.5487 9.48633 20.6339 9.48633C19.3068 9.48633 18.3859 9.83368 17.6465 10.1133C17.1243 10.311 16.7125 10.4661 16.2603 10.4661C15.7447 10.4661 15.2357 10.2848 14.6459 10.0751C13.8725 9.79982 12.9965 9.48742 11.8714 9.48742C9.69773 9.48742 7.50547 10.7851 6.15101 12.8714C4.12915 15.9834 4.68404 21.3193 7.47052 25.5596C8.57484 27.2396 10.1226 29.1697 12.3149 29.1894C12.3291 29.1894 12.3433 29.1894 12.3575 29.1894C14.1522 29.1894 14.5454 28.2325 16.2876 28.2216C18.1904 28.3112 18.4307 29.197 20.2079 29.185C22.3499 29.1653 23.8945 27.2505 25.1222 25.3794C25.8475 24.2794 26.1282 23.7038 26.6929 22.4542L27.1714 21.3947L26.0823 20.9829Z" fill="white"/>
<path d="M19.2505 6.74505C19.9605 5.83407 20.499 4.54842 20.3035 3.23438C19.1435 3.31411 17.789 4.05142 16.9971 5.01265C16.2784 5.88541 15.6852 7.1787 15.9157 8.43704C17.1806 8.47636 18.4903 7.72048 19.2505 6.74505Z" fill="white"/>
</svg>
