<svg width="33" height="33" viewBox="0 0 33 33" fill="none" xmlns="http://www.w3.org/2000/svg">
<path d="M27.2695 21.4484C25.7496 20.8736 24.7329 19.4934 24.6181 17.8473C24.5057 16.2433 25.2918 14.8188 26.7208 14.0361L27.9091 13.3852L27.0605 12.3287C25.6348 10.5532 23.5946 9.49219 21.6032 9.49219C20.223 9.49219 19.2654 9.85343 18.4963 10.1442C17.9533 10.3499 17.5251 10.5112 17.0548 10.5112C16.5186 10.5112 15.9892 10.3226 15.3758 10.1045C14.5715 9.81821 13.6604 9.49332 12.4904 9.49332C10.2298 9.49332 7.94987 10.8429 6.54125 13.0126C4.43855 16.249 5.01563 21.7983 7.91352 26.2082C9.06199 27.9553 10.6717 29.9626 12.9516 29.983C12.9664 29.983 12.9811 29.983 12.9959 29.983C14.8623 29.983 15.2713 28.9879 17.0832 28.9765C19.062 29.0697 19.312 29.991 21.1602 29.9785C23.3879 29.958 24.9941 27.9667 26.271 26.0207C27.0253 24.8768 27.3172 24.2781 27.9045 22.9786L28.4021 21.8767L27.2695 21.4484Z" fill="white"/>
<path d="M20.1632 6.64128C20.9016 5.69387 21.4617 4.35682 21.2583 2.99023C20.0519 3.07316 18.6433 3.83995 17.8197 4.83961C17.0722 5.74726 16.4554 7.09226 16.6951 8.40091C18.0105 8.44181 19.3726 7.65571 20.1632 6.64128Z" fill="white"/>
</svg>
