<svg width="25" height="25" viewBox="0 0 25 25" fill="none" xmlns="http://www.w3.org/2000/svg">
<path d="M16.4365 5.25972L16.4365 19.9738C16.4366 20.1194 16.3935 20.2618 16.3127 20.3829C16.2318 20.504 16.1169 20.5984 15.9824 20.6541C15.8479 20.7098 15.6999 20.7244 15.5571 20.696C15.4143 20.6675 15.2831 20.5974 15.1802 20.4943L7.82319 13.1373C7.75479 13.069 7.70053 12.9878 7.6635 12.8985C7.62648 12.8092 7.60742 12.7135 7.60742 12.6168C7.60742 12.5201 7.62648 12.4244 7.6635 12.335C7.70053 12.2457 7.75479 12.1646 7.82319 12.0963L15.1802 4.73921C15.2831 4.6362 15.4143 4.56604 15.5571 4.53761C15.6999 4.50917 15.8479 4.52374 15.9824 4.57947C16.1169 4.6352 16.2318 4.72959 16.3127 4.85068C16.3935 4.97178 16.4366 5.11413 16.4365 5.25972Z" fill="white"/>
</svg>
