<svg width="26" height="26" viewBox="0 0 26 26" fill="none" xmlns="http://www.w3.org/2000/svg">
<path d="M21.6348 10.1434L13.6687 18.1095C13.5947 18.1836 13.5069 18.2423 13.4102 18.2824C13.3135 18.3225 13.2098 18.3431 13.1051 18.3431C13.0004 18.3431 12.8968 18.3225 12.8001 18.2824C12.7034 18.2423 12.6155 18.1836 12.5415 18.1095L4.57543 10.1434C4.4639 10.032 4.38793 9.89001 4.35714 9.7354C4.32635 9.58079 4.34213 9.42052 4.40247 9.27488C4.46282 9.12924 4.56502 9.00478 4.69613 8.91726C4.82725 8.82973 4.98139 8.78308 5.13903 8.7832L21.0712 8.7832C21.2289 8.78308 21.383 8.82973 21.5141 8.91726C21.6452 9.00478 21.7474 9.12924 21.8078 9.27488C21.8681 9.42052 21.8839 9.58079 21.8531 9.7354C21.8223 9.89001 21.7464 10.032 21.6348 10.1434Z" fill="#C9617C"/>
</svg>
