<svg width="27" height="26" viewBox="0 0 27 26" fill="none" xmlns="http://www.w3.org/2000/svg">
<path d="M17.363 5.42177L17.363 21.2276C17.3631 21.384 17.3168 21.5369 17.23 21.667C17.1432 21.797 17.0197 21.8984 16.8752 21.9583C16.7308 22.0182 16.5718 22.0338 16.4184 22.0033C16.265 21.9727 16.1241 21.8974 16.0136 21.7867L8.11069 13.8838C8.03721 13.8104 7.97892 13.7232 7.93915 13.6273C7.89938 13.5314 7.87891 13.4285 7.87891 13.3247C7.87891 13.2208 7.89938 13.118 7.93915 13.022C7.97892 12.9261 8.03721 12.8389 8.11069 12.7655L16.0136 4.86264C16.1241 4.75199 16.265 4.67662 16.4184 4.64608C16.5718 4.61553 16.7308 4.63119 16.8752 4.69105C17.0197 4.75092 17.1432 4.85231 17.23 4.98238C17.3168 5.11246 17.3631 5.26538 17.363 5.42177Z" fill="#E12E2E"/>
</svg>
