<svg width="26" height="25" viewBox="0 0 26 25" fill="none" xmlns="http://www.w3.org/2000/svg">
<g clip-path="url(#clip0_114_4042)">
<path d="M9.29419 7.81932C8.95177 7.47689 8.39829 7.47689 8.05586 7.81932L5.17199 10.7032L2.28811 7.81932C1.94569 7.47689 1.39221 7.47689 1.04979 7.81932C0.707363 8.16174 0.707363 8.71522 1.04979 9.05764L3.93366 11.9415L1.04979 14.8254C0.707363 15.1678 0.707363 15.7213 1.04979 16.0637C1.22056 16.2345 1.44475 16.3203 1.66895 16.3203C1.89314 16.3203 2.11734 16.2345 2.28811 16.0637L5.17199 13.1798L8.05586 16.0637C8.22664 16.2345 8.45083 16.3203 8.67503 16.3203C8.89922 16.3203 9.12342 16.2345 9.29419 16.0637C9.63661 15.7213 9.63661 15.1678 9.29419 14.8254L6.41031 11.9415L9.29419 9.05764C9.63661 8.71522 9.63661 8.16174 9.29419 7.81932Z" fill="white"/>
</g>
<defs>
<clipPath id="clip0_114_4042">
<rect width="24.5174" height="24.5174" fill="white" transform="translate(0.792969 0.207031)"/>
</clipPath>
</defs>
</svg>
