<svg width="33" height="33" viewBox="0 0 33 33" fill="none" xmlns="http://www.w3.org/2000/svg">
<path d="M29.0651 17.3812L4.20426 17.3812C3.52623 17.3812 3.07422 16.9292 3.07422 16.2511C3.07422 15.5731 3.52623 15.1211 4.20426 15.1211L29.0651 15.1211C29.7431 15.1211 30.1952 15.5731 30.1952 16.2511C30.1952 16.9292 29.7431 17.3812 29.0651 17.3812Z" fill="#171A1F"/>
<path d="M29.0651 9.46906L4.20426 9.46906C3.52623 9.46906 3.07422 9.01705 3.07422 8.33902C3.07422 7.661 3.52623 7.20898 4.20426 7.20898L29.0651 7.20898C29.7431 7.20898 30.1952 7.661 30.1952 8.33902C30.1952 9.01705 29.7431 9.46906 29.0651 9.46906Z" fill="#171A1F"/>
<path d="M29.0651 25.2913L4.20426 25.2913C3.52623 25.2913 3.07422 24.8393 3.07422 24.1613C3.07422 23.4833 3.52623 23.0312 4.20426 23.0312L29.0651 23.0313C29.7431 23.0313 30.1952 23.4833 30.1952 24.1613C30.1952 24.8393 29.7431 25.2913 29.0651 25.2913Z" fill="#171A1F"/>
</svg>
