<svg width="35" height="35" viewBox="0 0 35 35" fill="none" xmlns="http://www.w3.org/2000/svg">
<path d="M30.4876 18.9766L3.78224 18.9766C3.05391 18.9766 2.56836 18.491 2.56836 17.7627C2.56836 17.0344 3.05391 16.5488 3.78224 16.5488L30.4876 16.5488C31.216 16.5488 31.7015 17.0344 31.7015 17.7627C31.7015 18.491 31.216 18.9766 30.4876 18.9766Z" fill="#171A1F"/>
<path d="M30.4876 10.4805L3.78224 10.4805C3.05391 10.4805 2.56836 9.99494 2.56836 9.26662C2.56836 8.53829 3.05391 8.05273 3.78224 8.05273L30.4876 8.05273C31.216 8.05273 31.7015 8.53829 31.7015 9.26662C31.7015 9.99494 31.216 10.4805 30.4876 10.4805Z" fill="#171A1F"/>
<path d="M30.4876 27.4727L3.78224 27.4727C3.05391 27.4727 2.56836 26.9871 2.56836 26.2588C2.56836 25.5305 3.05391 25.0449 3.78224 25.0449L30.4876 25.0449C31.216 25.0449 31.7015 25.5305 31.7015 26.2588C31.7015 26.9871 31.216 27.4727 30.4876 27.4727Z" fill="#171A1F"/>
</svg>
