<svg width="35" height="35" viewBox="0 0 35 35" fill="none" xmlns="http://www.w3.org/2000/svg">
<path d="M17.2277 2.94922C11.8866 2.94922 6.30273 7.07641 6.30273 13.8741C6.30273 20.3077 16.0138 30.1402 16.3779 30.5043C16.6207 30.7471 16.8635 30.8685 17.2277 30.8685C17.5918 30.8685 17.8346 30.7471 18.0774 30.5043C18.4415 30.1402 28.1526 20.3077 28.1526 13.8741C28.1526 7.07641 22.5687 2.94922 17.2277 2.94922ZM17.2277 17.5158C15.1641 17.5158 13.586 15.9377 13.586 13.8741C13.586 11.8105 15.1641 10.2325 17.2277 10.2325C19.2913 10.2325 20.8693 11.8105 20.8693 13.8741C20.8693 15.9377 19.2913 17.5158 17.2277 17.5158Z" fill="#171A1F"/>
</svg>
