<svg width="33" height="33" viewBox="0 0 33 33" fill="none" xmlns="http://www.w3.org/2000/svg">
<path d="M16.4145 2.73633C11.4423 2.73633 6.24414 6.57846 6.24414 12.9067C6.24414 18.8959 15.2845 28.0492 15.6235 28.3882C15.8495 28.6142 16.0755 28.7272 16.4145 28.7272C16.7535 28.7272 16.9795 28.6142 17.2055 28.3882C17.5445 28.0492 26.5849 18.8959 26.5849 12.9067C26.5849 6.57846 21.3867 2.73633 16.4145 2.73633ZM16.4145 16.2968C14.4934 16.2968 13.0244 14.8277 13.0244 12.9067C13.0244 10.9856 14.4934 9.51656 16.4145 9.51656C18.3356 9.51656 19.8046 10.9856 19.8046 12.9067C19.8046 14.8277 18.3356 16.2968 16.4145 16.2968Z" fill="#171A1F"/>
</svg>
