<svg width="26" height="26" viewBox="0 0 26 26" fill="none" xmlns="http://www.w3.org/2000/svg">
<path d="M13.1941 2.04297C11.045 2.04297 8.94419 2.68025 7.15729 3.87421C5.37039 5.06818 3.97767 6.76522 3.15525 8.75071C2.33283 10.7362 2.11765 12.921 2.53692 15.0288C2.95618 17.1366 3.99107 19.0727 5.5107 20.5923C7.03033 22.112 8.96646 23.1469 11.0743 23.5661C13.182 23.9854 15.3668 23.7702 17.3523 22.9478C19.3378 22.1254 21.0349 20.7326 22.2288 18.9457C23.4228 17.1588 24.0601 15.058 24.0601 12.9089C24.057 10.0281 22.9111 7.26607 20.8741 5.22898C18.837 3.19189 16.075 2.04608 13.1941 2.04297ZM13.1941 17.4364C12.2986 17.4364 11.4233 17.1709 10.6788 16.6734C9.93422 16.1759 9.35392 15.4688 9.01125 14.6415C8.66857 13.8142 8.57891 12.9039 8.75361 12.0257C8.9283 11.1474 9.3595 10.3407 9.99268 9.70752C10.6259 9.07434 11.4326 8.64314 12.3108 8.46845C13.1891 8.29375 14.0994 8.38341 14.9267 8.72609C15.754 9.06876 16.4611 9.64906 16.9586 10.3936C17.4561 11.1381 17.7216 12.0135 17.7216 12.9089C17.7201 14.1093 17.2427 15.26 16.3939 16.1088C15.5452 16.9575 14.3944 17.435 13.1941 17.4364Z" fill="#5494E0"/>
</svg>
