<svg width="28" height="27" viewBox="0 0 28 27" fill="none" xmlns="http://www.w3.org/2000/svg">
<path d="M9.79655 4.00655C9.6553 3.90062 9.48734 3.8361 9.3115 3.82025C9.13565 3.80439 8.95886 3.83782 8.80094 3.91678C8.64302 3.99574 8.5102 4.11711 8.41738 4.26731C8.32456 4.4175 8.27539 4.59057 8.27539 4.76713L8.27539 21.8802C8.27539 22.0567 8.32456 22.2298 8.41738 22.38C8.5102 22.5302 8.64302 22.6516 8.80094 22.7305C8.95886 22.8095 9.13565 22.8429 9.3115 22.8271C9.48734 22.8112 9.6553 22.7467 9.79655 22.6408L21.2053 14.0842C21.3233 13.9957 21.4192 13.8808 21.4852 13.7488C21.5512 13.6168 21.5855 13.4713 21.5855 13.3237C21.5855 13.1761 21.5512 13.0305 21.4852 12.8985C21.4192 12.7665 21.3233 12.6516 21.2053 12.5631L9.79655 4.00655Z" fill="white"/>
</svg>
