<svg width="26" height="25" viewBox="0 0 26 25" fill="none" xmlns="http://www.w3.org/2000/svg">
<path d="M9.28524 3.94459C9.15374 3.84597 8.99739 3.78592 8.83368 3.77115C8.66998 3.75639 8.5054 3.78751 8.35839 3.86102C8.21138 3.93452 8.08774 4.04752 8.00132 4.18733C7.91491 4.32715 7.86914 4.48827 7.86914 4.65264L7.86914 20.5837C7.86914 20.7481 7.91491 20.9092 8.00132 21.049C8.08774 21.1888 8.21138 21.3018 8.35839 21.3753C8.5054 21.4488 8.66998 21.48 8.83368 21.4652C8.99739 21.4504 9.15374 21.3904 9.28524 21.2918L19.9059 13.3262C20.0159 13.2438 20.1051 13.1369 20.1665 13.014C20.228 12.8911 20.26 12.7556 20.26 12.6182C20.26 12.4808 20.228 12.3453 20.1665 12.2224C20.1051 12.0995 20.0159 11.9926 19.9059 11.9101L9.28524 3.94459Z" fill="white"/>
</svg>
