<svg width="37" height="37" viewBox="0 0 37 37" fill="none" xmlns="http://www.w3.org/2000/svg">
<path d="M24.4921 17.1991C24.4921 18.4091 24.1333 19.592 23.461 20.5981C22.7887 21.6042 21.8332 22.3884 20.7153 22.8515C19.5973 23.3145 18.3672 23.4357 17.1804 23.1996C15.9936 22.9636 14.9035 22.3809 14.0478 21.5252C13.1922 20.6696 12.6095 19.5795 12.3734 18.3927C12.1374 17.2059 12.2585 15.9757 12.7216 14.8578C13.1847 13.7399 13.9688 12.7843 14.9749 12.1121C15.9811 11.4398 17.1639 11.081 18.374 11.081C19.9966 11.081 21.5528 11.7256 22.7001 12.8729C23.8475 14.0203 24.4921 15.5765 24.4921 17.1991ZM31.7226 7.18766L31.7226 29.4353C31.7226 30.0253 31.4882 30.5912 31.0709 31.0084C30.6537 31.4257 30.0878 31.6601 29.4978 31.6601L7.25016 31.6601C6.66011 31.6601 6.09423 31.4257 5.67701 31.0084C5.25978 30.5912 5.02539 30.0253 5.02539 29.4353L5.02539 7.18766C5.02539 6.59761 5.25978 6.03173 5.67701 5.61451C6.09423 5.19728 6.66011 4.96289 7.25016 4.96289L29.4978 4.96289C30.0878 4.96289 30.6537 5.19728 31.0709 5.61451C31.4882 6.03173 31.7226 6.59761 31.7226 7.18766ZM29.4978 29.4353L29.4978 7.18766L7.25016 7.18766L7.25016 29.4353H7.76046C8.42261 27.3461 9.68295 25.4969 11.3854 24.1167C11.6709 23.8868 11.9657 23.6727 12.2698 23.4743C12.3711 23.4082 12.4912 23.3769 12.6119 23.3852C12.7326 23.3935 12.8473 23.4409 12.9386 23.5202C14.4492 24.8243 16.3783 25.5418 18.374 25.5418C20.3696 25.5418 22.2987 24.8243 23.8094 23.5202C23.9007 23.4409 24.0154 23.3935 24.1361 23.3852C24.2568 23.3769 24.3769 23.4082 24.4782 23.4743C24.7822 23.6736 25.077 23.8878 25.3625 24.1167C27.065 25.4969 28.3253 27.3461 28.9875 29.4353H29.4978Z" fill="#F1CACB"/>
</svg>
