<svg width="40" height="39" viewBox="0 0 40 39" fill="none" xmlns="http://www.w3.org/2000/svg">
<path d="M26.6688 18.2573C26.6688 19.5572 26.2834 20.8278 25.5612 21.9086C24.8391 22.9893 23.8127 23.8317 22.6118 24.3291C21.4109 24.8265 20.0895 24.9567 18.8146 24.7031C17.5398 24.4495 16.3688 23.8236 15.4497 22.9045C14.5305 21.9853 13.9046 20.8143 13.651 19.5395C13.3975 18.2646 13.5276 16.9432 14.025 15.7423C14.5224 14.5414 15.3648 13.515 16.4456 12.7929C17.5263 12.0708 18.797 11.6853 20.0968 11.6853C21.8398 11.6853 23.5114 12.3777 24.7439 13.6102C25.9764 14.8427 26.6688 16.5143 26.6688 18.2573ZM34.4357 7.50311L34.4357 31.4014C34.4357 32.0352 34.184 32.6431 33.7358 33.0913C33.2876 33.5394 32.6797 33.7912 32.0459 33.7912L8.14764 33.7912C7.51382 33.7912 6.90596 33.5394 6.45778 33.0913C6.0096 32.6431 5.75781 32.0352 5.75781 31.4014L5.75781 7.50311C5.75781 6.86929 6.0096 6.26143 6.45778 5.81325C6.90596 5.36507 7.51382 5.11328 8.14764 5.11328L32.0459 5.11328C32.6797 5.11328 33.2876 5.36507 33.7358 5.81325C34.184 6.26143 34.4357 6.86929 34.4357 7.50311ZM32.0459 31.4014L32.0459 7.50311L8.14764 7.50311L8.14764 31.4014H8.69581C9.40708 29.1571 10.7609 27.1708 12.5897 25.6882C12.8964 25.4413 13.2131 25.2112 13.5397 24.9981C13.6485 24.9271 13.7775 24.8935 13.9072 24.9024C14.0368 24.9113 14.16 24.9622 14.2581 25.0474C15.8808 26.4483 17.9531 27.219 20.0968 27.219C22.2405 27.219 24.3127 26.4483 25.9354 25.0474C26.0335 24.9622 26.1567 24.9113 26.2864 24.9024C26.416 24.8935 26.5451 24.9271 26.6539 24.9981C26.9805 25.2122 27.2971 25.4423 27.6038 25.6882C29.4326 27.1708 30.7865 29.1571 31.4978 31.4014H32.0459Z" fill="#F1CACB"/>
</svg>
