<svg width="26" height="24" viewBox="0 0 26 24" fill="none" xmlns="http://www.w3.org/2000/svg">
<path d="M21.9239 12.0387V9.77859C21.9239 7.38095 20.9714 5.08152 19.276 3.38613C17.5806 1.69074 15.2812 0.738281 12.8836 0.738281C10.4859 0.738281 8.18648 1.69074 6.49109 3.38613C4.7957 5.08152 3.84324 7.38095 3.84324 9.77859L3.84324 12.0387C3.81549 12.728 3.64593 13.4041 3.34514 14.0249C3.04436 14.6458 2.61881 15.1979 2.09507 15.6469C1.15397 16.4488 0.564529 17.5875 0.453125 18.8189C0.453125 21.644 5.09985 23.3391 12.8836 23.3391C20.6673 23.3391 25.314 21.644 25.314 18.8189C25.2026 17.5875 24.6131 16.4488 23.672 15.6469C23.1483 15.1979 22.7228 14.6458 22.422 14.0249C22.1212 13.4041 21.9516 12.728 21.9239 12.0387Z" fill="#171A1F"/>
</svg>
