<svg width="28" height="26" viewBox="0 0 28 26" fill="none" xmlns="http://www.w3.org/2000/svg">
<path d="M23.761 13.09V10.6622C23.761 8.08669 22.7379 5.61665 20.9167 3.79547C19.0955 1.9743 16.6255 0.951172 14.05 0.951172C11.4744 0.951172 9.00438 1.9743 7.18321 3.79547C5.36203 5.61665 4.33891 8.08669 4.33891 10.6622L4.33891 13.09C4.3091 13.8304 4.12696 14.5567 3.80385 15.2236C3.48075 15.8905 3.02363 16.4836 2.46103 16.9659C1.45011 17.8273 0.816935 19.0505 0.697266 20.3733C0.697266 23.408 5.68874 25.2288 14.05 25.2288C22.4112 25.2288 27.4026 23.408 27.4026 20.3733C27.283 19.0505 26.6498 17.8273 25.6389 16.9659C25.0763 16.4836 24.6192 15.8905 24.2961 15.2236C23.973 14.5567 23.7908 13.8304 23.761 13.09Z" fill="#171A1F"/>
</svg>
