<svg width="28" height="26" viewBox="0 0 28 26" fill="none" xmlns="http://www.w3.org/2000/svg">
<path d="M25.1618 3.18295C23.6667 1.68903 21.6813 0.865234 19.5681 0.865234C17.4549 0.865234 15.4694 1.68903 13.9755 3.18181C13.9563 3.20103 13.9371 3.22024 13.9179 3.24058C13.8987 3.22024 13.8806 3.20216 13.8614 3.18295C12.3663 1.68903 10.3809 0.865234 8.2677 0.865234C6.15452 0.865234 4.16904 1.68903 2.674 3.18295C1.17896 4.67686 0.357422 6.66234 0.357422 8.77551C0.357422 10.8887 1.18009 12.8742 2.674 14.3681L13.9179 25.612L25.1618 14.3681C26.6557 12.8742 27.4784 10.8887 27.4784 8.77551C27.4784 6.66347 26.6557 4.67686 25.1618 3.18295Z" fill="#171A1F"/>
</svg>
