<svg width="17" height="10" viewBox="0 0 17 10" fill="none" xmlns="http://www.w3.org/2000/svg">
<path d="M16.4072 1.80923L8.99132 9.22511C8.92245 9.29406 8.84066 9.34876 8.75063 9.38608C8.66061 9.4234 8.56411 9.44261 8.46665 9.44261C8.36919 9.44261 8.27269 9.4234 8.18267 9.38608C8.09264 9.34876 8.01085 9.29406 7.94198 9.22511L0.526092 1.80923C0.422262 1.70552 0.351538 1.57333 0.322875 1.42939C0.294213 1.28546 0.3089 1.13626 0.365077 1.00068C0.421254 0.865105 0.516395 0.749242 0.638456 0.667763C0.760517 0.586284 0.904009 0.542853 1.05077 0.542969L15.8825 0.542969C16.0293 0.542853 16.1728 0.586284 16.2948 0.667763C16.4169 0.749242 16.512 0.865105 16.5682 1.00068C16.6244 1.13626 16.6391 1.28546 16.6104 1.42939C16.5818 1.57333 16.511 1.70552 16.4072 1.80923Z" fill="#C9617C"/>
</svg>
