<svg width="30" height="27" viewBox="0 0 30 27" fill="none" xmlns="http://www.w3.org/2000/svg">
<path d="M27.4728 2.65569C25.8668 1.05093 23.7341 0.166016 21.4641 0.166016C19.1941 0.166016 17.0614 1.05093 15.4566 2.65447C15.436 2.67511 15.4153 2.69574 15.3947 2.71759C15.3741 2.69574 15.3546 2.67632 15.334 2.65569C13.728 1.05093 11.5952 0.166016 9.32529 0.166016C7.05533 0.166016 4.92255 1.05093 3.31658 2.65569C1.71062 4.26044 0.828125 6.39322 0.828125 8.66318C0.828125 10.9331 1.71183 13.0659 3.31658 14.6707L15.3947 26.7488L27.4728 14.6707C29.0776 13.0659 29.9613 10.9331 29.9613 8.66318C29.9613 6.39444 29.0776 4.26044 27.4728 2.65569Z" fill="#171A1F"/>
</svg>
